<svg id="Capa_1" enable-background="new 0 0 512 512" height="512" viewBox="0 0 512 512" width="512" xmlns="http://www.w3.org/2000/svg"><g><path d="m215.981 148.965c1.456-2.08 2.014-4.602 1.573-7.099l-6.325-35.871c-.909-5.16-5.847-8.617-11.007-7.708l-94.796 16.715c-2.5.44-4.678 1.828-6.134 3.907s-2.015 4.601-1.575 7.101l6.325 35.872c.812 4.604 4.831 7.854 9.354 7.853.545 0 1.099-.047 1.654-.145l94.796-16.715c2.5-.442 4.679-1.83 6.135-3.91zm-102.537-20.146 34.598-6.1 4.416 25.043-34.598 6.101zm53.786 16.337-4.416-25.043 34.598-6.1 4.416 25.043z"/><path d="m481.297 232.645-54.579-9.625 3.824-21.71c2.617.269 5.094.412 7.419.412 4.862 0 9.103-.588 12.794-1.765 9.733-3.102 15.858-10.297 17.711-20.807 1.798-10.195-.827-20.454-7.394-28.945 4.308-3.99 7.093-9.006 8.069-14.544 1.725-9.783.318-21.253-3.762-30.684-4.851-11.211-12.646-18.289-21.952-19.93-9.303-1.641-19.052 2.344-27.444 11.22-7.06 7.466-12.304 17.765-14.029 27.547-.977 5.538-.075 11.205 2.608 16.427-9.074 5.733-15.05 14.476-16.848 24.67-1.853 10.51 1.44 19.365 9.524 25.609 4.533 3.501 10.641 6.2 18.531 8.187l-3.824 21.707-43.974-7.755c-3.004-.531-6.081.269-8.447 2.191l-16.31 13.25c-4.256 3.458-5.15 9.491-2.079 14.033l10.999 16.271c1.583 2.344 4.09 3.97 6.878 4.463l9.552 1.685 14.303 52.892-33.251 40.819c-2.022 2.481-3.008 5.607-2.776 8.801l3.326 45.774-58.136-55.81c8.476-10.2 32.223-38.778 40.698-48.977 1.78-2.14 2.531-4.941 2.06-7.681l-5.923-34.552c-.43-2.51-1.814-4.699-3.896-6.164-2.083-1.466-4.61-2.031-7.119-1.588l-6.204 1.094-8.726-11.601 4.289-8.877c1.56-3.228 1.186-7.008-.977-9.868-2.163-2.858-5.696-4.244-9.228-3.625l-24.589 4.335-30.898-175.226 9.242-1.63c2.763-.487 5.171-2.021 6.78-4.32 1.609-2.298 2.226-5.085 1.739-7.847l-5.611-31.823c-1.005-5.702-6.462-9.521-12.167-8.52l-126.496 22.306c-4.079.719-6.803 4.609-6.084 8.688s4.612 6.805 8.688 6.084l122.066-21.524 4.049 22.965-199.565 35.19-4.049-22.965 42.467-7.488c4.08-.719 6.803-4.609 6.084-8.688s-4.607-6.802-8.688-6.084l-46.896 8.27c-2.763.487-5.17 2.021-6.779 4.319s-2.228 5.085-1.74 7.848l5.611 31.821c.896 5.09 5.338 8.682 10.339 8.682.603 0 1.214-.052 1.828-.16l9.242-1.63 30.896 175.224-41.773 7.363c-5.029.887-8.68 5.237-8.68 10.344v218.777c0 6.893 5.607 12.5 12.5 12.5h432.955c6.893 0 12.5-5.607 12.5-12.5v-118.327c0-4.142-3.358-7.5-7.5-7.5s-7.5 3.358-7.5 7.5v115.827h-427.955v-175.947l267.993-47.252 4.562 26.611-61.417 73.905c-3.997 4.81-4.795 11.543-2.032 17.153l14.297 29.036c.165.333.098.734-.164.998l-32.019 32.12c-2.924 2.934-2.917 7.682.017 10.606 1.464 1.459 3.379 2.188 5.295 2.188 1.923 0 3.847-.735 5.312-2.205l32.02-32.12c4.791-4.807 5.996-12.126 2.998-18.213l-14.297-29.036c-.151-.307-.107-.676.111-.939l12.723-15.308 67.688 64.981c2.861 2.747 7.03 3.433 10.62 1.746 3.591-1.686 5.725-5.332 5.438-9.289l-4.291-59.063 33.434-41.044c2.535-3.112 3.422-7.282 2.375-11.158l-12.801-47.336.164.029c.057.01.112.012.169.021l89.761 15.837v62.821c0 4.142 3.358 7.5 7.5 7.5s7.5-3.358 7.5-7.5v-103.153c-.001-5.106-3.65-9.456-8.679-10.344zm-78.811-65.128c1.07-6.072 4.75-11.314 10.359-14.763 6.54-4.021 8.826-12.407 5.204-19.091-1.302-2.403-1.747-4.84-1.323-7.243 1.235-7.008 5.032-14.427 10.156-19.846 4.198-4.44 8.659-6.878 12.482-6.878.497 0 .984.042 1.458.125 8.971 1.582 16.061 18.977 13.546 33.237-.423 2.402-1.675 4.54-3.721 6.353-5.69 5.043-6.41 13.705-1.639 19.72 4.092 5.16 5.755 11.345 4.685 17.416-.881 5-3.123 7.727-7.494 9.12-4.612 1.469-11.505 1.412-20.486-.172-8.98-1.583-15.476-3.886-19.307-6.845-3.629-2.804-4.802-6.134-3.92-11.133zm-336.138-82.331 160.397-28.283 30.898 175.229-49.422 8.713-7.23-41.001c-.456-2.587-2.001-4.888-4.24-6.311-2.058-1.308-4.526-1.792-6.952-1.365l-38.786 6.839c-5.261.928-8.801 5.88-7.892 11.04l7.229 41.001-53.106 9.363zm98.775 163.257-6.275-35.586 28.325-4.995 6.275 35.587zm123.907-6.613-1.074 2.224c-1.555 3.215-1.187 6.987.961 9.846l6.157 8.185-248.054 43.736v-21.324c10.15-1.79 231.024-40.73 242.01-42.667zm66.839-4.683 11.519-9.358c17.401 3.069 93.014 16.403 107.587 18.973v21.325l-99.115-17.487c-.049-.009-.098-.009-.147-.016l-12.218-2.154z"/><path d="m37.508 254.57c2.843 0 5.562-1.625 6.823-4.379l6.387-13.946c2.773-6.056 1.493-13.311-3.184-18.051l-6.585-6.676c-.33-.334-.42-.846-.224-1.273l3.904-8.522c2.774-6.057 1.495-13.312-3.184-18.054l-6.582-6.672c-2.91-2.95-7.659-2.981-10.606-.072-2.949 2.909-2.981 7.658-.072 10.606l6.583 6.672c.33.334.42.846.224 1.272l-3.904 8.523c-2.773 6.056-1.495 13.311 3.183 18.053l6.585 6.677c.33.334.419.845.224 1.272l-6.387 13.945c-1.725 3.766-.07 8.217 3.696 9.942 1.013.463 2.074.683 3.119.683z"/><path d="m278.711 99.566c.33.334.419.845.224 1.272l-3.903 8.521c-2.774 6.056-1.496 13.312 3.182 18.054l6.584 6.676c1.468 1.488 3.403 2.233 5.34 2.233 1.902 0 3.805-.719 5.266-2.16 2.949-2.909 2.982-7.657.073-10.606l-6.585-6.676c-.33-.334-.42-.846-.224-1.273l3.903-8.521c2.775-6.057 1.496-13.313-3.183-18.055l-6.582-6.672c-.33-.334-.42-.846-.225-1.273l6.386-13.941c1.725-3.766.07-8.217-3.695-9.942-3.766-1.726-8.217-.071-9.942 3.695l-6.386 13.94c-2.775 6.056-1.496 13.312 3.183 18.055z"/></g></svg>