<?xml version="1.0" ?><svg viewBox="0 0 438.87 396.36" xmlns="http://www.w3.org/2000/svg"><title/><g data-name="Layer 2" id="Layer_2"><g data-name="tsunami, water, disaster, earthquake, sea, wave, destruction, danger, nature, storm, flood" id="tsunami_water_disaster_earthquake_sea_wave_destruction_danger_nature_storm_flood"><path d="M433.51,385.64c-19.93,0-29.71-5.87-40.06-12.08C382.3,366.87,370.77,360,347.87,360s-34.42,6.92-45.57,13.61c-10.36,6.21-20.14,12.08-40.06,12.08s-29.7-5.87-40.06-12.08C211,366.87,199.5,360,176.61,360a90.41,90.41,0,0,0-14.69,1.11,5.36,5.36,0,1,0,1.72,10.58,80.62,80.62,0,0,1,13-1c19.92,0,29.7,5.87,40.06,12.08,11.15,6.69,22.68,13.61,45.57,13.61s34.42-6.92,45.57-13.61c10.36-6.21,20.14-12.08,40.06-12.08s29.71,5.87,40.06,12.08c11.15,6.69,22.68,13.61,45.58,13.61a5.36,5.36,0,0,0,0-10.72Z"/><path d="M135.34,371q-2.18,1.26-4.3,2.55c-10.36,6.21-20.13,12.08-40.06,12.08s-29.7-5.87-40.05-12.08C39.78,366.87,28.25,360,5.36,360a5.36,5.36,0,0,0,0,10.72c19.92,0,29.7,5.87,40.05,12.08,11.15,6.69,22.68,13.61,45.57,13.61s34.42-6.92,45.58-13.61c1.37-.83,2.75-1.65,4.16-2.47a5.36,5.36,0,0,0-5.38-9.27Z"/><path d="M138,86.31c.56,0,56.5,1,107.88,45.68a5.36,5.36,0,0,0,7-8.1C198.39,76.54,140.5,75.61,138,75.59c-77.61,0-107.69,32.2-119.26,59.21a18.29,18.29,0,0,0,22.46,24.65c1-.33,1.94-.61,2.84-.85A45.22,45.22,0,0,0,44,173.1a16.6,16.6,0,0,0,12.47,13.6,16,16,0,0,0,17-6.13,42.49,42.49,0,0,1,25.59-16c12.33-.19,22.3,3.51,29.64,11.08,17,17.49,15.49,50,15.47,50.43A79.47,79.47,0,0,1,141,245.4a60.11,60.11,0,0,1-30,36.56,63,63,0,0,1-48.75,4.1c-21.29-7-40.44-10.51-56.94-10.51a5.36,5.36,0,0,0,0,10.72c15.36,0,33.4,3.36,53.6,10a73.82,73.82,0,0,0,57.09-4.81,70.72,70.72,0,0,0,35.28-43,90.46,90.46,0,0,0,3.54-21.87c.08-1.51,1.79-37.45-18.45-58.34-9.57-9.88-22.33-14.7-37.94-14.36a3.27,3.27,0,0,0-.54,0,52.49,52.49,0,0,0-33.1,20.34A5.49,5.49,0,0,1,59,176.29a5.8,5.8,0,0,1-4.44-4.83,35.57,35.57,0,0,1,1.87-17.88A5.37,5.37,0,0,0,51,146.39a63.68,63.68,0,0,0-13.07,2.87A7.57,7.57,0,0,1,28.63,139C38.93,115,66.27,86.31,138,86.31Z"/><path d="M274.55,154a5.36,5.36,0,0,0-1.06,7.51c.82,1.09,1.64,2.2,2.44,3.32a5.34,5.34,0,0,0,4.36,2.24,5.35,5.35,0,0,0,4.35-8.48c-.85-1.19-1.71-2.36-2.59-3.53A5.36,5.36,0,0,0,274.55,154Z"/><path d="M433.51,265.59C361,265.59,320.42,217,302.71,188a5.36,5.36,0,0,0-9.14,5.59c8.65,14.17,23.75,34.65,46.5,51.72,27.42,20.58,58.85,31,93.44,31a5.36,5.36,0,0,0,0-10.72Z"/><path d="M433.51,345.46c-19.93,0-29.71-5.87-40.06-12.08-11.15-6.69-22.68-13.61-45.58-13.61a86.68,86.68,0,0,0-18.18,1.76A5.36,5.36,0,0,0,331.92,332a76.23,76.23,0,0,1,15.95-1.53c19.93,0,29.71,5.87,40.06,12.08,11.15,6.69,22.68,13.61,45.58,13.61a5.36,5.36,0,0,0,0-10.72Z"/><path d="M306.23,331q-2,1.15-3.93,2.34c-10.36,6.21-20.14,12.08-40.06,12.08s-29.7-5.87-40.06-12.08c-11.15-6.69-22.68-13.61-45.57-13.61s-34.42,6.92-45.57,13.61c-10.35,6.21-20.13,12.08-40.06,12.08s-29.7-5.87-40.05-12.08c-11.15-6.69-22.68-13.61-45.57-13.61a5.36,5.36,0,0,0,0,10.72c19.92,0,29.7,5.87,40.05,12.08,11.15,6.69,22.68,13.61,45.57,13.61s34.42-6.92,45.58-13.61c10.35-6.21,20.13-12.08,40.05-12.08s29.7,5.87,40.06,12.08c11.15,6.69,22.68,13.61,45.57,13.61s34.42-6.92,45.57-13.61c1.27-.76,2.53-1.52,3.82-2.27a5.36,5.36,0,1,0-5.4-9.26Z"/><path d="M371.54,7.46a21.84,21.84,0,0,0-38.09,17.27l10.11,75.71a11.64,11.64,0,0,0,23.08,0l10.11-75.71A21.86,21.86,0,0,0,371.54,7.46Zm-5.42,15.85L356,99c0,.34-.11.8-.92.8s-.87-.46-.91-.8L344.08,23.31a11.12,11.12,0,1,1,22,0Z"/><path d="M336.29,137.27a18.81,18.81,0,1,0,18.81-18.81A18.83,18.83,0,0,0,336.29,137.27Zm26.9,0a8.09,8.09,0,1,1-8.09-8.09A8.09,8.09,0,0,1,363.19,137.27Z"/></g></g></svg>